<svg width="426" height="73" viewBox="0 0 426 73" fill="none" xmlns="http://www.w3.org/2000/svg">
<g clip-path="url(#clip0_4190_335)">
<path d="M0 0V38.252C5.6356 23.068 21.2576 11.4464 37.1424 11.4464C54.7208 11.4464 65.9628 25.696 62.2252 43.3036C59.3344 56.8524 48.4136 68.4156 35.5072 73.0292H73V0H0Z" fill="white"/>
<path d="M50.5453 43.2744C50.5453 28.0612 41.5225 15.7388 30.3681 15.7388C19.2137 15.7388 10.1909 28.0612 10.1909 43.2744C10.1909 58.4876 19.2137 70.81 30.3681 70.81C41.5225 70.81 50.5453 58.4876 50.5453 43.2744Z" fill="white"/>
<path d="M418.787 55.042H416.947V60.2104H416.246V55.042H414.407V54.4872H418.787V55.042ZM425.795 60.2104H425.094V55.1004H425.065L423.079 60.2104H422.612L420.626 55.1004H420.597V60.2104H419.896V54.5164H421.21L422.846 58.7212H422.875L424.481 54.5164H425.795V60.2104Z" fill="white"/>
<path d="M124.276 38.4564C124.276 50.9248 117.034 61.466 103.69 61.466C90.3743 61.466 83.1035 50.9248 83.1035 38.4564C83.1035 25.988 90.3451 15.4468 103.69 15.4468C117.034 15.4176 124.276 25.9588 124.276 38.4564ZM88.4471 38.4564C88.4471 47.742 93.4987 56.9984 103.719 56.9984C113.91 56.9984 118.99 47.7128 118.99 38.4564C118.99 29.2 113.939 19.9144 103.719 19.9144C93.4987 19.9144 88.4471 29.1708 88.4471 38.4564Z" fill="white"/>
<path d="M123.341 16.7024H129.239L142.905 54.896H143.051L156.541 16.7024H162.031L145.766 60.2104H140.102L123.341 16.7024Z" fill="white"/>
<path d="M166.966 39.8872C167.053 47.6544 171.112 56.9984 181.303 56.9984C189.07 56.9984 193.275 52.4432 194.969 45.8732H200.283C198.005 55.7428 192.282 61.466 181.303 61.466C167.462 61.466 161.651 50.8372 161.651 38.4564C161.651 26.9808 167.462 15.4468 181.303 15.4468C195.29 15.4468 200.867 27.6816 200.458 39.8872H166.966ZM195.115 35.4196C194.852 27.4188 189.888 19.9144 181.274 19.9144C172.601 19.9144 167.783 27.5064 166.937 35.4196H195.115Z" fill="white"/>
<path d="M255.004 29.4336C254.741 22.8636 249.689 19.9144 243.616 19.9144C238.885 19.9144 233.337 21.7832 233.337 27.4188C233.337 32.1492 238.739 33.8136 242.36 34.748L249.456 36.354C255.529 37.2884 261.866 40.8216 261.866 48.4136C261.866 57.8452 252.492 61.4952 244.404 61.4952C234.272 61.4952 227.38 56.7648 226.534 46.136H231.848C232.257 53.29 237.571 57.0276 244.667 57.0276C249.631 57.0276 256.551 54.8376 256.551 48.764C256.551 43.7124 251.821 42.0188 247.032 40.8508L240.199 39.3324C233.279 37.4636 228.052 35.1276 228.052 27.6816C228.052 18.834 236.724 15.4468 244.404 15.4468C253.076 15.4468 259.997 20.002 260.347 29.4336H255.004Z" fill="white"/>
<path d="M274.889 16.7024H283.737V21.17H274.889V50.516C274.889 53.9616 275.386 56.0056 279.182 56.2392C280.7 56.2392 282.218 56.1516 283.737 55.9764V60.5316C282.131 60.5316 280.612 60.7068 279.006 60.7068C271.911 60.7068 269.487 58.3416 269.575 50.9248V21.17H264.436V16.7024H269.575V3.62079H274.889V16.7024Z" fill="white"/>
<path d="M325.872 38.4564C325.872 50.9248 318.631 61.466 305.286 61.466C291.971 61.466 284.7 50.9248 284.7 38.4564C284.7 25.988 291.942 15.4468 305.286 15.4468C318.631 15.4176 325.872 25.9588 325.872 38.4564ZM290.044 38.4564C290.044 47.742 295.095 56.9984 305.315 56.9984C315.506 56.9984 320.587 47.7128 320.587 38.4564C320.587 29.2 315.535 19.9144 305.315 19.9144C295.095 19.9144 290.044 29.1708 290.044 38.4564Z" fill="white"/>
<path d="M363.54 30.368C362.109 23.8856 358.138 19.9144 351.218 19.9144C341.027 19.9144 335.946 29.2 335.946 38.4564C335.946 47.742 340.998 56.9984 351.218 56.9984C357.788 56.9984 363.19 51.8592 363.861 44.5884H369.176C367.745 55.042 360.912 61.466 351.218 61.466C337.903 61.466 330.632 50.9248 330.632 38.4564C330.632 25.988 337.873 15.4468 351.218 15.4468C360.503 15.4468 367.657 20.4108 368.855 30.368H363.54Z" fill="white"/>
<path d="M374.753 0H380.067V37.7848L404.187 16.7024H411.282L392.711 32.7916L412.538 60.2104H405.88L388.681 36.5L380.067 43.6832V60.2104H374.753V0Z" fill="white"/>
<path d="M225.307 16.2936C219.204 17.1404 214.62 20.9656 212.313 26.8932H212.138V16.7024H207.232V60.2104H212.576V37.0256C212.576 29.1416 217.598 22.7176 225.307 21.5788V16.2936Z" fill="white"/>
</g>
<defs>
<clipPath id="clip0_4190_335">
<rect width="425.794" height="73" fill="white"/>
</clipPath>
</defs>
</svg>
