<svg width="55" height="20" viewBox="0 0 55 20" fill="none" xmlns="http://www.w3.org/2000/svg">
<g opacity="0.7">
<path fillRule="evenodd" clipRule="evenodd" d="M26.8871 8.45154L28.025 5.71547H31.5968L32.7433 8.45154H33.477L29.8152 0L26.1534 8.45154H26.8871ZM29.8186 1.47635L31.3487 5.11226H28.2977L29.8186 1.47635Z" fill="white"/>
<path fillRule="evenodd" clipRule="evenodd" d="M3.84597 4.03261C3.76679 4.01054 3.68699 3.99126 3.60663 3.97475C3.73035 3.94542 3.84863 3.9092 3.96147 3.86598C4.31814 3.73268 4.59669 3.52938 4.79711 3.26277C4.99752 2.99617 5.09942 2.66624 5.09942 2.26966C5.09942 1.83642 5.00092 1.47315 4.8039 1.18321C4.60689 0.893284 4.32834 0.673336 3.96827 0.526704C3.6082 0.380061 3.18019 0.306735 2.68084 0.306735H0.880488V8.44503H2.79974C3.33645 8.44503 3.81201 8.35837 4.22643 8.18841C4.64085 8.01844 4.96695 7.75849 5.20474 7.40857C5.44251 7.05864 5.5614 6.61541 5.5614 6.08219C5.5614 5.71226 5.48327 5.389 5.33041 5.1124C5.17755 4.83913 4.97374 4.61249 4.71558 4.43253C4.46082 4.2559 4.16869 4.12259 3.84597 4.03261ZM1.53609 7.87848V4.27257H2.80313C3.08507 4.27257 3.35342 4.31256 3.6014 4.38921C3.84937 4.46586 4.07357 4.58251 4.27059 4.73247C4.4676 4.88244 4.62047 5.06906 4.73257 5.28902C4.84466 5.5123 4.89902 5.76558 4.89902 6.05218C4.89902 6.45543 4.8107 6.79204 4.63746 7.05864C4.46422 7.32526 4.21964 7.52855 3.90373 7.66851C3.58782 7.80849 3.22095 7.87848 2.80313 7.87848H1.53609ZM2.68424 3.70602H1.53609V0.879955H2.68424C3.22435 0.879955 3.65235 1.0066 3.97166 1.25655C4.29097 1.50983 4.45062 1.85974 4.45062 2.30964C4.45062 2.62958 4.3691 2.88952 4.21284 3.09614C4.05659 3.30276 3.84258 3.45606 3.57422 3.55605C3.30588 3.65602 3.00695 3.70602 2.68424 3.70602Z" fill="white"/>
<path d="M44.4625 10.462V20L38.2597 14.9277V19.5468H35.8004V10.0088L42.0031 15.081V10.462H44.4625Z" fill="white"/>
<path fillRule="evenodd" clipRule="evenodd" d="M26.2219 11.5456C25.7633 11.9655 25.4067 12.4687 25.1451 13.0519H25.1383C24.8767 13.6352 24.7476 14.295 24.7476 15.0049C24.7476 15.7147 24.8699 16.3679 25.1179 16.9645C25.3659 17.561 25.7158 18.0775 26.1709 18.5141C26.6261 18.9507 27.1594 19.2906 27.7777 19.5272C28.3959 19.7639 29.0719 19.8838 29.8158 19.8838C30.5597 19.8838 31.2391 19.7672 31.8607 19.5272C32.4824 19.2873 33.0191 18.9507 33.4675 18.5141C33.9193 18.0775 34.2657 17.561 34.5137 16.9645C34.7617 16.3679 34.884 15.7214 34.884 15.0049C34.884 14.2883 34.7583 13.6352 34.5069 13.0519C34.2556 12.4654 33.9023 11.9655 33.4437 11.5456C32.9851 11.1257 32.4484 10.8024 31.8369 10.5725C31.2221 10.3425 30.5325 10.2292 29.8192 10.2292C29.1059 10.2292 28.4401 10.3425 27.8286 10.5725C27.2172 10.8024 26.6805 11.1257 26.2219 11.5456ZM28.5759 17.1777C28.2261 16.9644 27.9509 16.6712 27.7573 16.2946H27.7539C27.5603 15.9213 27.4618 15.4981 27.4618 15.0049C27.4618 14.5116 27.5603 14.0817 27.7539 13.7085C27.9475 13.3352 28.2193 13.0453 28.5726 12.832C28.9258 12.622 29.3402 12.5154 29.8158 12.5154C30.3186 12.5154 30.7432 12.6187 31.093 12.832C31.4429 13.0453 31.7079 13.3352 31.8947 13.7085C32.0815 14.0784 32.1732 14.5216 32.1732 15.0049C32.1732 15.4881 32.0747 15.918 31.8811 16.2946C31.6875 16.6712 31.4157 16.9644 31.0693 17.1777C30.7194 17.3877 30.2948 17.4943 29.8192 17.4943C29.3436 17.4943 28.9292 17.391 28.5759 17.1777Z" fill="white"/>
<path fillRule="evenodd" clipRule="evenodd" d="M6.67711 14.6901C6.90709 14.7742 7.12402 14.876 7.32786 14.9948C7.68794 15.2081 7.97666 15.4781 8.19406 15.8113C8.41146 16.1446 8.51677 16.5445 8.51677 17.0111C8.51677 17.6176 8.3673 18.1042 8.06838 18.4774C7.76945 18.8507 7.34145 19.1206 6.78436 19.2873C6.22727 19.4572 5.56148 19.5405 4.78699 19.5405H0.833008V10.4558H4.54921C5.2116 10.4558 5.79925 10.5424 6.31559 10.7157C6.83192 10.889 7.23954 11.1457 7.53847 11.4889C7.8374 11.8322 7.98686 12.2621 7.98686 12.7786C7.98686 13.2952 7.8374 13.6951 7.53847 14.045C7.31312 14.3088 7.026 14.5234 6.67711 14.6901ZM3.40446 15.7547V17.6276H4.47448C4.72924 17.6276 4.96023 17.601 5.16744 17.551C5.37466 17.4976 5.5411 17.401 5.66339 17.2577C5.78568 17.1144 5.85021 16.9111 5.85021 16.6411C5.85021 16.4678 5.81624 16.3246 5.74491 16.2112C5.67358 16.0979 5.57506 16.0079 5.44598 15.938C5.3169 15.868 5.17084 15.8213 5.00779 15.7947C4.84474 15.768 4.6647 15.7547 4.47107 15.7547H3.40446ZM4.24009 14.0584H3.40446V12.3854H4.23669C4.58997 12.3854 4.85832 12.4487 5.04515 12.5787C5.23198 12.7086 5.3237 12.9119 5.3237 13.1885C5.3237 13.3685 5.28293 13.5251 5.19802 13.6551C5.11309 13.7851 4.9942 13.8851 4.83454 13.955C4.67828 14.025 4.47787 14.0584 4.24009 14.0584Z" fill="white"/>
<path d="M12.0324 13.8379V12.4982H15.9864V10.462H9.57309V19.5467H12.0324V19.5434H15.9864V17.5071H12.0324V15.8108H15.7214V13.8379H12.0324Z" fill="white"/>
<path d="M25.4944 10.462L22.213 15.9108V19.5434H19.594V15.9375L16.299 10.462H19.2611L20.9018 13.6413L22.5289 10.462H25.4944Z" fill="white"/>
<path fillRule="evenodd" clipRule="evenodd" d="M48.5632 10.4686V10.462H45.9034V19.5467H47.6494V19.5533H49.3682C50.4179 19.5533 51.3181 19.3667 52.0722 19.0001C52.8263 18.6336 53.4071 18.1103 53.8182 17.4305C54.2292 16.7506 54.433 15.9541 54.433 15.011C54.433 14.0678 54.2292 13.258 53.8182 12.5848C53.4071 11.9116 52.8263 11.3884 52.0722 11.0218C51.3181 10.6519 50.4179 10.4686 49.3682 10.4686H48.5632ZM48.5632 12.6748V17.3405H49.2629C49.5721 17.3405 49.8744 17.3072 50.1699 17.2438C50.4654 17.1772 50.7304 17.0639 50.9716 16.8939C51.2094 16.724 51.403 16.4873 51.5456 16.1807C51.6917 15.8741 51.763 15.4809 51.763 15.0077C51.763 14.5344 51.6917 14.1412 51.5456 13.8346C51.3996 13.528 51.2094 13.288 50.9716 13.1214C50.7338 12.9514 50.4654 12.8348 50.1699 12.7715C49.8744 12.7081 49.5721 12.6748 49.2629 12.6748H48.5632Z" fill="white"/>
<path d="M7.14117 3.68243V0.913023H10.9491V0.30982H6.48895V8.44809H10.9491V7.84489H7.14117V4.28565H10.7113V3.68243H7.14117Z" fill="white"/>
<path fillRule="evenodd" clipRule="evenodd" d="M12.7594 8.44834V8.44503H14.3594C15.1644 8.44503 15.8744 8.27172 16.4858 7.9318C17.0973 7.59186 17.5762 7.11529 17.9193 6.50875C18.2624 5.90222 18.4356 5.18904 18.4356 4.37589C18.4356 3.56272 18.2624 2.85286 17.9193 2.24299C17.5762 1.63645 17.0973 1.1599 16.4858 0.819968C15.8744 0.476712 15.1644 0.306735 14.3594 0.306735H12.4639V0.31007H12.1072V8.44834H12.7594ZM12.7594 7.80849V0.946612H14.3594C14.8723 0.946612 15.3411 1.02659 15.7623 1.18989C16.1835 1.35319 16.547 1.58648 16.8459 1.88308C17.1448 2.18302 17.3758 2.54294 17.5389 2.96619C17.7019 3.38943 17.7834 3.85933 17.7834 4.37922C17.7834 4.8991 17.7019 5.36901 17.5389 5.79225C17.3758 6.21216 17.1448 6.57541 16.8459 6.87202C16.547 7.17196 16.1835 7.40191 15.7623 7.56521C15.3411 7.72851 14.8723 7.80849 14.3594 7.80849H12.7594Z" fill="white"/>
<path fillRule="evenodd" clipRule="evenodd" d="M24.3347 3.97475C24.415 3.99126 24.4948 4.01054 24.574 4.03261C24.8967 4.12259 25.1889 4.2559 25.4436 4.43253C25.7018 4.61249 25.9056 4.83913 26.0584 5.1124C26.2113 5.389 26.2894 5.71226 26.2894 6.08219C26.2894 6.61541 26.1705 7.05864 25.9328 7.40857C25.695 7.75849 25.3689 8.01844 24.9545 8.18841C24.54 8.35837 24.0645 8.44503 23.5278 8.44503H21.6085V0.306735H23.4089C23.9082 0.306735 24.3362 0.380061 24.6963 0.526704C25.0564 0.673336 25.3349 0.893284 25.5319 1.18321C25.7289 1.47315 25.8275 1.83642 25.8275 2.26966C25.8275 2.66624 25.7256 2.99617 25.5251 3.26277C25.3247 3.52938 25.0462 3.73268 24.6895 3.86598C24.5767 3.9092 24.4584 3.94542 24.3347 3.97475ZM22.2641 4.27257V7.87848H23.5312C23.949 7.87848 24.3158 7.80849 24.6317 7.66851C24.9477 7.52855 25.1922 7.32526 25.3655 7.05864C25.5387 6.79204 25.627 6.45543 25.627 6.05218C25.627 5.76558 25.5727 5.5123 25.4606 5.28902C25.3485 5.06906 25.1956 4.88244 24.9986 4.73247C24.8016 4.58251 24.5774 4.46586 24.3294 4.38921C24.0815 4.31256 23.8131 4.27257 23.5312 4.27257H22.2641ZM22.2641 3.70602H23.4123C23.735 3.70602 24.0339 3.65602 24.3023 3.55605C24.5706 3.45606 24.7846 3.30276 24.9409 3.09614C25.0971 2.88952 25.1787 2.62958 25.1787 2.30964C25.1787 1.85974 25.019 1.50983 24.6997 1.25655C24.3804 1.0066 23.9524 0.879955 23.4123 0.879955H22.2641V3.70602Z" fill="white"/>
<path d="M37.2207 0.30982H32.2068V0.913023H34.3876V8.44809H35.0398V0.913023H37.2207V0.30982Z" fill="white"/>
<path d="M38.3214 0.30982V3.71577H43.1688V0.30982H43.8311V8.44809H43.1688V4.31899H38.3214V8.44809H37.6692V0.30982H38.3214Z" fill="white"/>
<path fillRule="evenodd" clipRule="evenodd" d="M48.0566 2.66958C48.1789 2.90285 48.325 3.10948 48.4948 3.29277L48.4982 3.28943C48.6681 3.4694 48.8175 3.63602 48.9432 3.78266L49.0334 3.88342C49.0017 3.89855 48.9694 3.91385 48.9364 3.9293C48.7156 4.03594 48.488 4.15593 48.2604 4.2959C48.0294 4.43586 47.8188 4.60249 47.6252 4.7958C47.4316 4.98909 47.272 5.21236 47.1497 5.46897C47.0274 5.72558 46.9662 6.02551 46.9662 6.36545C46.9662 6.82202 47.0851 7.21528 47.3263 7.54521C47.5675 7.87514 47.8834 8.12841 48.274 8.3017C48.6681 8.47834 49.0859 8.56499 49.5377 8.56499C50.0676 8.56499 50.5466 8.46168 50.9711 8.25173C51.3958 8.04176 51.7898 7.76514 52.1499 7.42522C52.1593 7.4163 52.1688 7.40736 52.1782 7.39839L53.1146 8.44502H53.8483L52.5668 7.0028C52.7732 6.77904 52.9714 6.54167 53.1622 6.29214C53.4781 5.87889 53.794 5.46898 54.1099 5.06574L53.6241 4.7758C53.3388 5.17238 53.0467 5.55896 52.7477 5.93888C52.5671 6.16783 52.3829 6.3825 52.195 6.58433L49.913 4.01612C49.917 4.01384 49.9209 4.01156 49.9249 4.00928C50.2001 3.84931 50.4446 3.68603 50.6586 3.52272C50.8726 3.35943 51.0527 3.18946 51.1987 3.01616C51.3448 2.83953 51.4569 2.66291 51.535 2.47961C51.6132 2.29965 51.6539 2.10969 51.6539 1.9164C51.6539 1.62312 51.5826 1.34319 51.4399 1.0799C51.2973 0.816622 51.09 0.599999 50.8183 0.433367C50.5466 0.266736 50.2035 0.183426 49.806 0.183426C49.4086 0.183426 49.0689 0.256753 48.7802 0.403385C48.4914 0.550028 48.2672 0.749987 48.111 1.0066C47.9513 1.26321 47.8732 1.55646 47.8732 1.88973C47.8732 2.17633 47.9343 2.43629 48.0566 2.66958ZM49.4035 4.29711C49.3401 4.33072 49.275 4.36475 49.2082 4.39921C48.9432 4.53585 48.6918 4.68915 48.4507 4.85912C48.2095 5.02907 48.0091 5.23236 47.8528 5.46897C47.6932 5.70558 47.615 5.99553 47.615 6.33546C47.615 6.6754 47.7033 6.98534 47.8766 7.23528C48.0498 7.48855 48.2842 7.67851 48.5831 7.81181C48.8821 7.94513 49.2082 8.00843 49.5716 8.00843C49.9996 8.00843 50.3971 7.91512 50.7673 7.72517C51.1354 7.53631 51.4834 7.28818 51.8045 6.98075L49.4035 4.29711ZM49.557 3.61546C50.007 3.35473 50.3599 3.08188 50.6247 2.80287C50.8998 2.51293 51.0323 2.21633 51.0323 1.91306C51.0323 1.70311 50.9881 1.50982 50.8964 1.33318C50.8047 1.15322 50.6722 1.00992 50.4922 0.896609C50.3122 0.783305 50.088 0.726642 49.8094 0.726642C49.3916 0.726642 49.0689 0.836622 48.8481 1.05657C48.6273 1.27653 48.5152 1.55646 48.5152 1.88639C48.5152 2.21632 48.6103 2.48628 48.8039 2.72956C48.9976 2.97283 49.2014 3.21612 49.4154 3.45606L49.557 3.61546Z" fill="white"/>
</g>
</svg>
