<svg width="400" height="201" viewBox="0 0 400 201" fill="none" xmlns="http://www.w3.org/2000/svg">
<path fillRule="evenodd" clipRule="evenodd" d="M340.635 143.672L348.939 129.529C349.23 129.045 349.512 128.585 349.78 128.147C351.313 125.647 352.412 123.855 352.412 122.178C352.412 120.494 351.294 119.929 349.976 119.261C348.08 118.301 345.769 117.131 345.769 112.124C345.769 105.754 349.688 101.661 354.379 101.661C357.38 101.661 360.416 102.01 363.473 102.361C366.57 102.716 369.688 103.074 372.81 103.074C375.924 103.074 378.58 102.717 381.219 102.361C383.827 102.01 386.42 101.661 389.422 101.661C396.228 101.661 400 106.322 400 112.405C400 116.653 397.276 121.886 392.146 121.886C391.089 121.886 390.07 121.709 389.051 121.532C388.03 121.355 387.009 121.177 385.949 121.177C384.289 121.177 383.082 121.469 381.875 122.742C380.635 124.105 379.318 126.017 378.102 127.782L378.1 127.784C377.681 128.393 377.273 128.984 376.885 129.529L358.306 157.254C354.534 162.916 353.471 165.038 353.471 167.44V175.796C353.471 178.904 355.435 180.878 358.605 180.878C360.138 180.878 361.629 180.626 363.101 180.378C364.535 180.136 365.95 179.897 367.367 179.897C372.504 179.897 375.228 185.126 375.228 189.374C375.228 195.453 371.452 200.125 364.65 200.125C360.964 200.125 357.852 199.787 354.667 199.44L354.666 199.44C351.327 199.077 347.906 198.705 343.658 198.705C339.783 198.705 335.947 199.063 332.13 199.42C328.352 199.774 324.592 200.125 320.834 200.125C309.504 200.125 305.732 195.453 305.732 189.374C305.732 185.126 308.444 179.897 313.593 179.897C315.103 179.897 316.575 180.142 318.047 180.388C319.517 180.633 320.988 180.878 322.495 180.878C325.064 180.878 326.721 179.469 326.721 175.652V170.135C326.586 165.525 325.612 164.034 322.203 158.814C322.053 158.584 321.898 158.348 321.738 158.103L304.226 131.076C303.99 130.718 303.703 130.269 303.38 129.765C302.047 127.683 300.118 124.669 298.775 123.299C297.572 122.026 296.213 121.465 294.401 121.465C293.433 121.465 292.527 121.553 291.624 121.648C291.86 123.004 291.98 124.409 291.98 125.857C291.98 136.605 284.422 144.112 274.014 145.665V145.949C287.699 149.197 295.826 157.402 295.826 170.843C295.826 194.471 274.161 200.133 257.339 200.133C253.796 200.133 250.399 199.843 246.674 199.525C242.154 199.139 237.152 198.712 230.821 198.712C226.329 198.712 222.856 199.117 219.618 199.494C216.791 199.824 214.142 200.133 211.15 200.133C209.638 200.133 208.26 200.058 207.006 199.916C206.112 200.145 205.156 200.266 204.148 200.266C200.973 200.266 198.239 199.919 195.475 199.569C192.648 199.211 189.79 198.849 186.396 198.849C183.095 198.849 179.83 199.207 176.585 199.564C173.377 199.916 170.189 200.266 167.005 200.266C161.188 200.266 157.003 196.306 157.003 191.069C157.003 184.979 160.14 181.447 164.318 181.447C164.647 181.447 165.006 181.476 165.407 181.508C165.913 181.548 166.487 181.594 167.153 181.594C169.234 181.594 170.585 180.598 170.585 178.62C170.585 177.96 170.452 177.429 170.32 176.9C170.252 176.63 170.185 176.36 170.135 176.073C169.836 174.656 169.234 171.969 168.492 170.832C167.599 169.419 166.108 169.419 163.872 169.419L146.865 169.422C140.454 169.275 139.557 169.983 138.664 171.113C137.767 172.393 136.575 177.062 136.575 178.62C136.575 180.465 137.619 181.307 139.557 181.307C140.221 181.307 140.702 181.35 141.126 181.389L141.127 181.389C141.462 181.42 141.762 181.447 142.089 181.447C145.222 181.447 149.4 183.565 149.4 191.069C149.4 196.306 145.222 200.266 139.409 200.266C136.233 200.266 133.497 199.919 130.731 199.569C127.904 199.211 125.046 198.849 121.657 198.849C118.353 198.849 115.09 199.207 111.847 199.563C108.64 199.916 105.453 200.266 102.262 200.266C96.8535 200.266 92.8616 196.596 92.3286 191.528C84.3865 198.129 72.5326 200.133 62.4137 200.133C58.8276 200.133 55.3915 199.843 51.6251 199.525L51.6247 199.525C47.0572 199.139 42.0039 198.712 35.608 198.712C31.0644 198.712 27.5506 199.117 24.2748 199.495L24.2743 199.495C21.4143 199.824 18.7356 200.133 15.7114 200.133C3.59845 200.129 0 195.46 0 189.378C0 185.134 2.59827 179.893 7.49954 179.893C8.56307 179.893 9.58912 180.134 10.6321 180.379C11.7101 180.632 12.8062 180.89 13.9804 180.89C16.719 180.89 17.59 178.055 17.59 169.426V132.364C17.59 123.163 16.719 120.897 13.9804 120.897C12.8085 120.897 11.7128 121.153 10.6347 121.405C9.59084 121.649 8.5635 121.89 7.49954 121.89C2.59827 121.886 0 116.656 0 112.408C0 106.33 3.59845 101.661 16.2871 101.661C19.5338 101.661 22.5718 102.001 25.6733 102.347L25.6734 102.347C28.9076 102.709 32.2109 103.078 35.8922 103.078C42.9109 103.078 48.5733 102.634 53.5619 102.244C57.4896 101.936 60.9996 101.661 64.4252 101.661C71.9284 101.661 78.9888 102.51 85.1892 105.758C92.9692 109.865 97.4423 117.081 97.4423 125.857C97.4423 136.605 89.7952 144.112 79.2766 145.665V145.949C93.1168 149.197 101.329 157.402 101.329 170.843C101.329 174.277 100.866 177.331 100.023 180.043C100.676 180.062 101.332 180.117 102 180.173L102.001 180.173C102.857 180.244 103.734 180.317 104.647 180.317C108.708 180.317 110.473 175.092 111.647 171.614C111.811 171.129 111.964 170.677 112.109 170.279L132.541 117.077C135.885 108.422 137.806 104.596 142.413 102.924C134.839 101.839 127.389 97.6866 127.389 89.474C127.389 84.1225 131.807 80.0922 137.354 80.0922C141.653 80.0922 145.171 83.4692 145.171 87.6176C145.171 88.1299 145.067 88.6456 144.963 89.1612V89.1613V89.1614V89.1615C144.913 89.411 144.862 89.6605 144.824 89.9095C145.732 90.4521 146.411 90.7769 147.54 90.7769C151.504 90.7769 156.601 84.7795 156.601 81.181C156.601 78.5606 153.431 71.1422 152.183 68.4111L140.753 42.3325C138.83 37.7486 138.262 36.7706 136.675 36.7706C136.223 36.7706 135.8 36.8248 135.375 36.8791C134.949 36.9337 134.522 36.9883 134.065 36.9883C130.33 36.9883 129.09 34.0431 129.09 30.7658C129.09 26.6211 131.009 23.2367 135.77 23.2367C137.415 23.2367 139.167 23.494 140.973 23.7592C142.895 24.0415 144.878 24.3329 146.861 24.3329C148.875 24.3329 150.858 24.066 152.868 23.7957C154.932 23.518 157.023 23.2367 159.203 23.2367C163.621 23.2367 165.772 25.7538 165.772 29.7877C165.772 33.3825 163.96 34.1539 162.152 34.6964C161.859 34.7661 161.563 34.8245 161.273 34.8818L161.272 34.882L161.271 34.8822L161.271 34.8822C159.764 35.1797 158.413 35.4465 158.413 37.0954C158.413 37.8835 158.882 39.2959 159.231 40.3501L159.232 40.3508L159.232 40.352C159.367 40.7582 159.484 41.1112 159.55 41.3545L166.909 63.3917H167.13L174.49 42.3325C175.054 40.9153 175.962 38.4093 175.962 36.9883C175.962 36.0901 175.082 35.7431 173.975 35.307C173.6 35.159 173.198 35.0007 172.796 34.8071C171.209 34.1539 169.511 32.9507 169.511 29.677C169.511 26.2963 171.777 23.2367 175.398 23.2367C176.945 23.2367 178.57 23.4972 180.236 23.7641C181.988 24.0449 183.785 24.3329 185.584 24.3329C187.496 24.3329 189.379 24.0628 191.275 23.7908C193.199 23.5148 195.138 23.2367 197.136 23.2367C199.669 23.2367 201.398 24.1988 202.462 25.7252V20.8452C202.462 15.3903 202.24 13.0947 200.417 13.0947C199.888 13.0947 199.361 13.2618 198.799 13.4402C198.156 13.644 197.468 13.8623 196.678 13.8623C192.951 13.8623 191.707 10.9171 191.707 7.63979C191.707 3.38439 193.626 0 198.38 0C199.845 0 201.335 0.269836 202.837 0.541748C204.362 0.817876 205.899 1.09614 207.433 1.09614C209.152 1.09614 210.841 0.817881 212.513 0.542229C214.154 0.271703 215.78 0.00369067 217.405 0.00369067C220.118 0.00369067 221.144 1.64237 221.144 5.89408V24.6614H221.373C224.875 19.8634 230.423 17.3538 236.996 17.3538C245.85 17.3538 251.598 22.055 255.001 28.4845C255.641 25.4478 257.721 23.2367 262.026 23.2367C263.822 23.2367 265.45 23.5062 267.092 23.778C268.761 24.0543 270.444 24.3329 272.331 24.3329C274.177 24.3329 275.523 24.0288 276.796 23.7409C277.94 23.4823 279.026 23.2367 280.365 23.2367C283.311 23.2367 283.311 25.3146 283.311 28.1491V55.3201C283.311 57.6121 283.311 61.432 284.676 63.6095C285.377 64.6453 286.32 65.495 287.423 66.0852C288.525 66.6755 289.755 66.9886 291.006 66.9976C294.294 66.9976 297.35 65.3552 299.162 62.6351C301.539 59.1437 301.768 55.4309 301.768 51.3895V43.8641C301.768 37.9738 301.31 36.2244 299.727 36.2244C299.355 36.2244 298.982 36.3206 298.61 36.4169C298.418 36.4666 298.225 36.5164 298.033 36.5528C297.99 36.5669 297.947 36.581 297.904 36.5949L297.827 36.6203C297.231 36.8165 296.698 36.992 295.992 36.992C292.264 36.992 291.006 34.0468 291.006 30.7732C291.006 26.6248 292.932 23.2367 297.922 23.2367C299.788 23.2367 301.343 23.5108 302.899 23.7848C304.455 24.0588 306.01 24.3329 307.876 24.3329C309.438 24.3329 310.765 24.0477 312.064 23.7683C313.313 23.4999 314.537 23.2367 315.922 23.2367C318.86 23.2367 319.539 24.4436 319.539 26.8426V59.5718C319.539 66.1229 320.336 67.2153 321.58 67.2153C322.109 67.2153 322.637 67.0487 323.2 66.8711C323.843 66.6684 324.531 66.4513 325.318 66.4513C329.061 66.4513 330.293 69.3965 330.293 72.6665C330.293 76.8149 328.374 80.1956 323.621 80.1956C322.173 80.1956 320.785 79.9114 319.428 79.6334C318.129 79.3673 316.857 79.1068 315.586 79.1068C314.295 79.1068 313.001 79.3993 311.754 79.6811C310.595 79.9429 309.477 80.1956 308.441 80.1956C305.621 80.1956 304.374 78.3428 304.374 76.5971V72.2347H304.145C299.956 78.2358 291.807 81.6202 284.219 81.6202C272.556 81.6202 265.532 75.0692 265.532 64.0524V43.8641C265.532 37.2098 264.743 36.2244 263.491 36.2244C263.127 36.2244 262.755 36.3203 262.382 36.4164C262.188 36.4663 261.994 36.5163 261.801 36.5528C261.752 36.5686 261.704 36.5844 261.657 36.6L261.585 36.6238C260.994 36.8185 260.468 36.992 259.76 36.992C259.09 36.992 258.499 36.8973 257.982 36.7229C258.727 39.9925 259.066 43.3724 259.066 46.599C259.066 61.5464 251.825 77.3648 234.161 77.3648C226.691 77.3648 219.9 74.7444 215.933 67.3261L215.711 67.5475L216.047 70.2713C216.047 73.7664 212.991 75.4014 209.71 75.4014C203.702 75.4014 202.462 72.6702 202.462 67.4331V35.4574C201.677 36.4003 200.506 36.9883 198.837 36.9883C198.326 36.9883 197.815 36.8793 197.305 36.7703C196.796 36.6615 196.287 36.5528 195.778 36.5528C194.534 36.5528 193.512 37.3168 191.814 41.79L181.967 67.7579C177.063 80.7462 169.724 96.6866 155.777 101.661L155.962 101.661C162.975 101.661 168.939 101.661 172.069 103.207C175.955 105.197 176.553 106.891 178.49 113.401L196.686 171.268C196.76 171.496 196.833 171.72 196.905 171.939L196.905 171.939L196.905 171.94C198.427 176.61 199.334 179.394 201.337 180.124C201.865 179.976 202.428 179.897 203.026 179.897C203.736 179.897 204.428 180.006 205.12 180.152C205.77 180.091 206.391 180.037 206.983 180.037C208.055 180.037 209.14 180.277 210.134 180.82C212.292 180.326 212.999 177.269 212.999 169.43V132.364C212.999 123.163 212.142 120.897 209.437 120.897C208.279 120.897 207.195 121.153 206.129 121.405C205.096 121.649 204.08 121.89 203.026 121.89C198.173 121.89 195.608 116.656 195.608 112.408C195.608 106.33 199.177 101.661 211.718 101.661C214.931 101.661 217.938 102.001 221.007 102.348L221.008 102.348C224.206 102.709 227.472 103.078 231.109 103.078C238.047 103.078 243.643 102.635 248.576 102.244C252.462 101.936 255.937 101.661 259.332 101.661C266.75 101.661 273.726 102.51 279.86 105.758C280.521 106.111 281.159 106.487 281.771 106.885C283.457 103.72 286.812 101.661 291.832 101.661C294.836 101.661 297.877 102.01 300.936 102.361C304.032 102.717 307.145 103.074 310.257 103.074C313.003 103.074 315.6 102.734 318.246 102.388C320.995 102.028 323.797 101.661 326.876 101.661C327.513 101.661 328.117 101.704 328.689 101.786C323.058 99.8615 318.472 95.9175 318.472 89.474C318.472 84.1225 322.89 80.0922 328.437 80.0922C332.733 80.0922 336.25 83.4692 336.25 87.6176C336.25 88.1245 336.149 88.6346 336.047 89.1447C335.996 89.3998 335.945 89.6549 335.907 89.9095C336.815 90.4521 337.494 90.7769 338.62 90.7769C342.591 90.7769 347.677 84.7795 347.677 81.181C347.677 78.5606 344.506 71.1422 343.266 68.4111L331.832 42.3325C329.913 37.7486 329.341 36.7706 327.758 36.7706C327.305 36.7706 326.881 36.8248 326.457 36.8791C326.031 36.9337 325.603 36.9883 325.145 36.9883C321.41 36.9883 320.17 34.0431 320.17 30.7658C320.17 26.6211 322.093 23.2367 326.85 23.2367C328.497 23.2367 330.249 23.4941 332.055 23.7594C333.976 24.0417 335.958 24.3329 337.941 24.3329C339.958 24.3329 341.944 24.0657 343.956 23.7951C346.018 23.5177 348.107 23.2367 350.282 23.2367C354.7 23.2367 356.852 25.7538 356.852 29.7877C356.852 33.3825 355.043 34.1539 353.228 34.6964C352.934 34.7664 352.638 34.8251 352.347 34.8827C350.846 35.18 349.496 35.4472 349.496 37.0954C349.496 37.8647 349.947 39.229 350.292 40.2742C350.436 40.7131 350.563 41.0958 350.629 41.3545L357.989 63.3917H358.21L365.569 42.3325C366.13 40.9153 367.046 38.4093 367.046 36.9883C367.046 36.0915 366.164 35.7442 365.059 35.3091C364.682 35.1605 364.278 35.0016 363.875 34.8071C362.292 34.1539 360.591 32.9507 360.591 29.677C360.591 26.2963 362.857 23.2367 366.481 23.2367C368.027 23.2367 369.65 23.4967 371.315 23.7635C373.068 24.0444 374.869 24.3329 376.675 24.3329C378.578 24.3329 380.457 24.0633 382.351 23.7916C384.277 23.5153 386.219 23.2367 388.219 23.2367C392.973 23.2367 394.892 26.6211 394.892 30.7658C394.892 34.0431 393.652 36.9883 389.917 36.9883C389.408 36.9883 388.897 36.8795 388.387 36.7706C387.877 36.6617 387.367 36.5528 386.857 36.5528C385.614 36.5528 384.595 37.3168 382.897 41.79L373.039 67.7579C367.16 83.3585 357.756 103.218 337.597 103.218C335.541 103.218 333.389 102.993 331.301 102.522C335.13 104.222 336.852 108.245 336.852 112.833C336.852 117.303 334.419 118.429 332.401 119.363C330.972 120.024 329.751 120.589 329.751 122.178C329.751 123.728 330.81 125.706 332.925 129.529L340.635 143.672ZM11.4523 20.8452C11.4523 15.3903 11.2309 13.0947 9.41134 13.0947C8.88442 13.0947 8.3575 13.2618 7.79535 13.4401C7.15262 13.6439 6.46384 13.8623 5.67633 13.8623C1.94133 13.8623 0.701245 10.9171 0.701245 7.63979C0.701245 3.38439 2.62042 0 7.37406 0C8.83307 0 10.3202 0.269003 11.821 0.540487C13.3497 0.817028 14.8927 1.09614 16.4348 1.09614C18.1489 1.09614 19.833 0.818335 21.5027 0.542904C23.144 0.272148 24.7714 0.00369067 26.3997 0.00369067C29.1124 0.00369067 30.1347 1.64237 30.1347 5.89408V24.6614H30.3635C33.8697 19.8634 39.4206 17.3538 45.9864 17.3538C54.7949 17.3538 60.531 22.0067 63.9428 28.3852C64.6072 25.3997 66.6877 23.2367 70.943 23.2367C72.7415 23.2367 74.371 23.5067 76.0127 23.7786C77.6793 24.0547 79.3585 24.3329 81.2401 24.3329C83.0917 24.3329 84.439 24.0285 85.7136 23.7405C86.8577 23.482 87.9432 23.2367 89.2822 23.2367C92.2347 23.2367 92.2347 25.3146 92.2347 28.1491L92.231 55.3201C92.231 57.6121 92.2311 61.432 93.5855 63.6095C94.2885 64.6452 95.2324 65.4947 96.3363 66.0848C97.4401 66.675 98.6708 66.9882 99.9225 66.9976C103.207 66.9976 106.267 65.3552 108.079 62.6351C110.452 59.1437 110.685 55.4309 110.685 51.3895V43.8641C110.685 37.9738 110.231 36.2244 108.647 36.2244C108.275 36.2244 107.9 36.3209 107.526 36.4173C107.334 36.4669 107.141 36.5165 106.95 36.5528C106.879 36.5759 106.809 36.5989 106.74 36.6217L106.738 36.622C106.145 36.8175 105.616 36.992 104.909 36.992C101.174 36.992 99.9262 34.0468 99.9262 30.7732C99.9262 26.6248 101.849 23.2367 106.828 23.2367C108.695 23.2367 110.253 23.5108 111.81 23.7848C113.368 24.0588 114.925 24.3329 116.793 24.3329C118.355 24.3329 119.68 24.0477 120.979 23.7683C122.227 23.4999 123.45 23.2367 124.835 23.2367C127.78 23.2367 128.459 24.4436 128.459 26.8426V59.5718C128.459 66.1229 129.253 67.2153 130.5 67.2153C131.025 67.2153 131.551 67.0493 132.113 66.8721C132.757 66.6691 133.447 66.4513 134.235 66.4513C137.97 66.4513 139.214 69.3965 139.214 72.6665C139.214 76.8149 137.295 80.1956 132.537 80.1956C131.09 80.1956 129.703 79.9116 128.346 79.6337C127.045 79.3675 125.772 79.1068 124.499 79.1068C123.209 79.1068 121.919 79.3988 120.675 79.6804C119.517 79.9425 118.398 80.1956 117.357 80.1956C114.538 80.1956 113.29 78.3428 113.29 76.5971V72.2347H113.058C108.869 78.2358 100.723 81.6202 93.1353 81.6202C81.4726 81.6202 74.4529 75.0692 74.4529 64.0524V43.8641C74.4529 37.2098 73.6557 36.2244 72.4119 36.2244C72.0431 36.2244 71.6711 36.3201 71.298 36.416C71.1036 36.4661 70.9089 36.5162 70.7142 36.5528C70.6404 36.5767 70.5681 36.6006 70.4967 36.6242L70.4963 36.6243C69.9066 36.8188 69.3817 36.992 68.6806 36.992C68.0454 36.992 67.4822 36.907 66.985 36.7498C67.7268 40.0111 68.0642 43.3813 68.0642 46.599C68.0642 61.5464 60.823 77.3648 43.1556 77.3648C35.6819 77.3648 28.8873 74.7444 24.9234 67.3261L24.702 67.5475L25.0415 70.2713C25.0415 73.7664 21.9819 75.4014 18.7009 75.4014C12.6961 75.4014 11.4523 72.6702 11.4523 67.4331V20.8452ZM49.3818 47.577C49.3818 43.8679 49.046 39.8265 47.1194 36.6673C45.6431 34.2646 43.1556 32.0834 40.2104 32.0834C35.9107 32.0834 30.1347 36.1211 30.1347 47.7985C30.1347 58.2691 34.4344 62.6352 40.0997 62.6352C45.5324 62.6352 49.3818 57.9406 49.3818 47.577ZM44.2554 135.9C44.2554 139.295 45.263 139.295 51.1681 139.295C63.2774 139.295 70.0572 136.18 70.0572 128.961C70.0572 121.469 60.5425 119.627 54.4824 119.627C44.9714 119.627 44.2554 121.473 44.2554 128.253V135.9ZM44.2554 173.109C44.2554 179.044 47.2781 181.314 58.6677 181.314C65.8719 181.314 73.6594 177.771 73.6594 169.991C73.6594 160.517 62.8455 156.977 51.5999 156.977C44.5396 156.977 44.2554 157.125 44.2554 163.056V173.109ZM146.865 147.636C146.811 147.842 146.736 148.029 146.664 148.212C146.538 148.529 146.418 148.832 146.418 149.19C146.418 150.327 148.208 151.028 152.087 151.028H156.11C161.487 151.028 162.676 150.467 162.676 149.053C162.676 148.061 162.233 146.219 161.93 145.226L155.815 119.059H155.516L146.865 147.636ZM246.219 139.295C240.376 139.295 239.38 139.295 239.38 135.9V128.253C239.38 121.473 240.089 119.627 249.496 119.627C255.483 119.627 264.894 121.469 264.894 128.961C264.894 136.18 258.195 139.295 246.219 139.295ZM253.634 181.314C242.369 181.314 239.38 179.044 239.38 173.109V163.056C239.38 157.125 239.66 156.977 246.643 156.977C257.767 156.977 268.455 160.517 268.455 169.991C268.455 177.771 260.757 181.314 253.634 181.314ZM238.132 36.6673C240.052 39.8265 240.384 43.8679 240.384 47.577C240.384 57.9406 236.534 62.6352 231.109 62.6352C225.444 62.6352 221.144 58.2691 221.144 47.7985C221.144 36.1211 226.916 32.0834 231.212 32.0834C234.161 32.0834 236.653 34.2646 238.132 36.6673Z" fill="white"/>
<path d="M384.942 193.56V186.75H388.393C388.67 186.75 388.971 186.83 389.297 186.99C389.623 187.144 389.9 187.384 390.127 187.71C390.361 188.03 390.478 188.436 390.478 188.928C390.478 189.426 390.358 189.851 390.118 190.201C389.878 190.546 389.586 190.807 389.242 190.985C388.903 191.164 388.583 191.253 388.282 191.253H385.791V190.146H387.821C388.024 190.146 388.242 190.044 388.476 189.841C388.716 189.638 388.836 189.334 388.836 188.928C388.836 188.51 388.716 188.227 388.476 188.079C388.242 187.931 388.036 187.858 387.858 187.858H386.437V193.56H384.942ZM389.057 190.349L390.755 193.56H389.112L387.452 190.349H389.057ZM387.525 197.62C386.504 197.62 385.548 197.429 384.656 197.047C383.764 196.666 382.98 196.137 382.303 195.46C381.626 194.784 381.097 194 380.716 193.108C380.335 192.216 380.144 191.259 380.144 190.238C380.144 189.217 380.335 188.261 380.716 187.369C381.097 186.477 381.626 185.692 382.303 185.016C382.98 184.339 383.764 183.81 384.656 183.429C385.548 183.047 386.504 182.857 387.525 182.857C388.546 182.857 389.503 183.047 390.395 183.429C391.287 183.81 392.071 184.339 392.748 185.016C393.424 185.692 393.953 186.477 394.335 187.369C394.716 188.261 394.907 189.217 394.907 190.238C394.907 191.259 394.716 192.216 394.335 193.108C393.953 194 393.424 194.784 392.748 195.46C392.071 196.137 391.287 196.666 390.395 197.047C389.503 197.429 388.546 197.62 387.525 197.62ZM387.525 195.848C388.559 195.848 389.5 195.596 390.349 195.091C391.198 194.587 391.874 193.91 392.379 193.062C392.883 192.213 393.135 191.272 393.135 190.238C393.135 189.205 392.883 188.264 392.379 187.415C391.874 186.566 391.198 185.889 390.349 185.385C389.5 184.88 388.559 184.628 387.525 184.628C386.492 184.628 385.551 184.88 384.702 185.385C383.853 185.889 383.176 186.566 382.672 187.415C382.168 188.264 381.915 189.205 381.915 190.238C381.915 191.272 382.168 192.213 382.672 193.062C383.176 193.91 383.853 194.587 384.702 195.091C385.551 195.596 386.492 195.848 387.525 195.848Z" fill="white"/>
</svg>
