<svg width="60" height="12" viewBox="0 0 60 12" fill="none" xmlns="http://www.w3.org/2000/svg">
<path d="M16.7382 6.34707V5.47648H18.0109C18.2286 5.47648 18.4126 5.44119 18.5627 5.3706C18.7204 5.30001 18.8405 5.20197 18.9231 5.07648C19.0057 4.94315 19.047 4.78236 19.047 4.59413C19.047 4.31178 18.9569 4.10001 18.7767 3.95883C18.5965 3.81766 18.3412 3.74707 18.0109 3.74707H17.2225V8.90001H18.1911C18.4388 8.90001 18.6603 8.86864 18.8555 8.80589C19.0508 8.73531 19.2047 8.6255 19.3173 8.47648C19.4374 8.31962 19.4975 8.10785 19.4975 7.84119C19.4975 7.66864 19.4637 7.51962 19.3962 7.39413C19.3286 7.26864 19.2347 7.16668 19.1146 7.08825C18.9945 7.00981 18.8555 6.95491 18.6979 6.92354C18.5477 6.88432 18.3788 6.86472 18.1911 6.86472H16.7382V5.78236H18.405C18.788 5.78236 19.1596 5.8255 19.52 5.91178C19.8804 5.99805 20.2071 6.13923 20.4999 6.33531C20.7927 6.52354 21.0255 6.76668 21.1982 7.06472C21.3784 7.35491 21.4685 7.70785 21.4685 8.12354C21.4685 8.67256 21.3408 9.1157 21.0855 9.45295C20.8378 9.79021 20.4849 10.0412 20.0269 10.2059C19.5688 10.3628 19.0282 10.4412 18.405 10.4412H15.3191V2.20589H18.2136C18.7617 2.20589 19.2422 2.28432 19.6552 2.44119C20.0757 2.59021 20.406 2.82158 20.6463 3.1353C20.8941 3.44119 21.018 3.82942 21.018 4.30001C21.018 4.73138 20.8941 5.10001 20.6463 5.40589C20.406 5.71178 20.0757 5.94707 19.6552 6.11178C19.2422 6.26864 18.7617 6.34707 18.2136 6.34707H16.7382Z" fill="white"/>
<path d="M23.7217 10.4412V8.80589H27.6974V10.4412H23.7217ZM23.7217 3.84119V2.20589H27.6974V3.84119H23.7217ZM23.7217 6.91178V5.31178H27.4721V6.91178H23.7217ZM22.4603 2.20589H24.2848V10.4412H22.4603V2.20589Z" fill="white"/>
<path d="M33.3348 2.20589H35.5197L32.7604 7.08825V10.4412H30.8232V7.10001L28.0639 2.20589H30.2488L31.7918 5.30001L33.3348 2.20589Z" fill="white"/>
<path d="M37.0103 6.32354C37.0103 6.80981 37.1004 7.24119 37.2806 7.61766C37.4683 7.98629 37.7274 8.27648 38.0578 8.48825C38.3956 8.70001 38.7898 8.80589 39.2403 8.80589C39.6833 8.80589 40.07 8.70001 40.4004 8.48825C40.7383 8.27648 40.9973 7.98629 41.1775 7.61766C41.3652 7.24119 41.4591 6.80981 41.4591 6.32354C41.4591 5.83727 41.369 5.40981 41.1888 5.04119C41.0086 4.66472 40.7533 4.3706 40.4229 4.15883C40.0925 3.94707 39.6983 3.84119 39.2403 3.84119C38.7898 3.84119 38.3956 3.94707 38.0578 4.15883C37.7274 4.3706 37.4683 4.66472 37.2806 5.04119C37.1004 5.40981 37.0103 5.83727 37.0103 6.32354ZM34.9943 6.32354C34.9943 5.68825 35.0994 5.10785 35.3097 4.58236C35.5274 4.05687 35.8278 3.60197 36.2107 3.21766C36.5936 2.83334 37.0441 2.53923 37.5622 2.3353C38.0803 2.12354 38.6397 2.01766 39.2403 2.01766C39.8485 2.01766 40.4079 2.12354 40.9185 2.3353C41.4365 2.53923 41.887 2.83334 42.27 3.21766C42.6529 3.60197 42.9495 4.05687 43.1597 4.58236C43.3699 5.10785 43.4751 5.68825 43.4751 6.32354C43.4751 6.95883 43.3699 7.54315 43.1597 8.07648C42.957 8.60981 42.6642 9.07256 42.2812 9.46472C41.9058 9.85687 41.4591 10.1628 40.941 10.3824C40.4229 10.5941 39.856 10.7 39.2403 10.7C38.6171 10.7 38.0465 10.5941 37.5284 10.3824C37.0103 10.1628 36.5598 9.85687 36.1769 9.46472C35.8015 9.07256 35.5087 8.60981 35.2984 8.07648C35.0957 7.54315 34.9943 6.95883 34.9943 6.32354Z" fill="white"/>
<path d="M49.7966 2.20589H51.6324V10.853L46.1813 5.80589V10.4412H44.3568V1.79413L49.7966 6.84119V2.20589Z" fill="white"/>
<path d="M52.9608 2.20589H54.9205V10.4412H52.9608V2.20589ZM55.7765 10.4412H54.2222V8.67648H55.7089C56.0092 8.67648 56.2983 8.63727 56.5761 8.55883C56.8614 8.4804 57.1092 8.35099 57.3194 8.1706C57.5372 7.99021 57.7099 7.75099 57.8375 7.45295C57.9652 7.14707 58.029 6.7706 58.029 6.32354C58.029 5.87648 57.9652 5.50393 57.8375 5.20589C57.7099 4.90001 57.5372 4.65687 57.3194 4.47648C57.1092 4.29609 56.8614 4.16668 56.5761 4.08825C56.2983 4.00981 56.0092 3.9706 55.7089 3.9706H54.2222V2.20589H55.7765C56.6399 2.20589 57.387 2.37452 58.0177 2.71178C58.6484 3.04903 59.1365 3.52354 59.4819 4.1353C59.8272 4.74707 59.9999 5.47648 59.9999 6.32354C59.9999 7.16276 59.8272 7.89217 59.4819 8.51178C59.1365 9.12354 58.6484 9.59805 58.0177 9.93531C57.387 10.2726 56.6399 10.4412 55.7765 10.4412Z" fill="white"/>
<path d="M1.20567 6.61111L0 7.83333V11.5H3.61702L4.8227 10.2778H1.20567V6.61111ZM9.64539 10.2778H6.02837L7.23404 11.5H10.8511V7.83333L9.64539 6.61111V10.2778ZM7.23404 0.5L6.02837 1.72222H9.64539V5.38889L10.8511 4.16667V0.5H7.23404ZM1.20567 1.72222H4.8227L3.61702 0.5H0V4.16667L1.20567 5.38889V1.72222ZM2.36249 4.72825L3.34038 5.71956C3.46425 4.76592 4.20816 4.0118 5.14889 3.88623L4.171 2.89491C3.35208 3.23535 2.69831 3.89809 2.36249 4.72825ZM8.48858 7.27175L7.51069 6.28044C7.38682 7.23408 6.64291 7.9882 5.70218 8.11377L6.68007 9.10509C7.49899 8.76465 8.15275 8.10192 8.48858 7.27175ZM3.33969 6.28114L2.3618 7.27245C2.69763 8.10261 3.35139 8.76535 4.17031 9.10578L5.1482 8.11447C4.20747 7.9889 3.46356 7.23478 3.33969 6.28114ZM8.48858 4.72825C8.15275 3.89809 7.49899 3.23535 6.68007 2.89491L5.70218 3.88623C6.64291 4.0118 7.38682 4.76592 7.51069 5.71956L8.48858 4.72825Z" fill="white"/>
</svg>
